<svg width="666" height="553" xmlns="http://www.w3.org/2000/svg" xmlns:xlink="http://www.w3.org/1999/xlink" overflow="hidden"><defs><clipPath id="clip0"><rect x="2568" y="768" width="666" height="553"/></clipPath></defs><g clip-path="url(#clip0)" transform="translate(-2568 -768)"><path d="M2695 843.664C2695 805.742 2725.74 775 2763.66 775L3038.31 775C3076.23 775 3106.97 805.742 3106.97 843.664L3106.97 1245.34C3106.97 1283.26 3076.23 1314 3038.31 1314L2763.66 1314C2725.74 1314 2695 1283.26 2695 1245.34Z" stroke="#595959" stroke-width="13.75" stroke-miterlimit="8" fill="#D0CECE" fill-rule="evenodd"/><text font-family="Constantia,Constantia_MSFontService,sans-serif" font-weight="700" font-size="64" transform="matrix(1 0 0 1 2706.27 1036)">Transformer <tspan font-size="64" x="63.9146" y="77">Encoder</tspan></text><rect x="2570.5" y="827.75" width="48.75" height="48.75" fill="#B4C7E7"/><path d="M2619.25 827.75 2635.5 811.5 2635.5 860.25 2619.25 876.5Z" fill="#91A0BA" fill-rule="evenodd"/><path d="M2570.5 827.75 2586.75 811.5 2635.5 811.5 2619.25 827.75Z" fill="#C3D2EC" fill-rule="evenodd"/><path d="M2570.5 827.75 2586.75 811.5 2635.5 811.5 2635.5 860.25 2619.25 876.5 2570.5 876.5ZM2570.5 827.75 2619.25 827.75 2635.5 811.5M2619.25 827.75 2619.25 876.5" stroke="#2F528F" stroke-width="4.58333" stroke-miterlimit="8" fill="none" fill-rule="evenodd"/><rect x="2570.5" y="908.75" width="48.75" height="48.75" fill="#B4C7E7"/><path d="M2619.25 908.75 2635.5 892.5 2635.5 941.25 2619.25 957.5Z" fill="#91A0BA" fill-rule="evenodd"/><path d="M2570.5 908.75 2586.75 892.5 2635.5 892.5 2619.25 908.75Z" fill="#C3D2EC" fill-rule="evenodd"/><path d="M2570.5 908.75 2586.75 892.5 2635.5 892.5 2635.5 941.25 2619.25 957.5 2570.5 957.5ZM2570.5 908.75 2619.25 908.75 2635.5 892.5M2619.25 908.75 2619.25 957.5" stroke="#2F528F" stroke-width="4.58333" stroke-miterlimit="8" fill="none" fill-rule="evenodd"/><rect x="2571.5" y="988.5" width="48" height="48.9999" fill="#B4C7E7"/><path d="M2619.5 988.5 2635.5 972.5 2635.5 1021.5 2619.5 1037.5Z" fill="#91A0BA" fill-rule="evenodd"/><path d="M2571.5 988.5 2587.5 972.5 2635.5 972.5 2619.5 988.5Z" fill="#C3D2EC" fill-rule="evenodd"/><path d="M2571.5 988.5 2587.5 972.5 2635.5 972.5 2635.5 1021.5 2619.5 1037.5 2571.5 1037.5ZM2571.5 988.5 2619.5 988.5 2635.5 972.5M2619.5 988.5 2619.5 1037.5" stroke="#2F528F" stroke-width="4.58333" stroke-miterlimit="8" fill="none" fill-rule="evenodd"/><rect x="2570.5" y="1067.75" width="48.75" height="48.75" fill="#B4C7E7"/><path d="M2619.25 1067.75 2635.5 1051.5 2635.5 1100.25 2619.25 1116.5Z" fill="#91A0BA" fill-rule="evenodd"/><path d="M2570.5 1067.75 2586.75 1051.5 2635.5 1051.5 2619.25 1067.75Z" fill="#C3D2EC" fill-rule="evenodd"/><path d="M2570.5 1067.75 2586.75 1051.5 2635.5 1051.5 2635.5 1100.25 2619.25 1116.5 2570.5 1116.5ZM2570.5 1067.75 2619.25 1067.75 2635.5 1051.5M2619.25 1067.75 2619.25 1116.5" stroke="#2F528F" stroke-width="4.58333" stroke-miterlimit="8" fill="none" fill-rule="evenodd"/><rect x="2570.5" y="1148.75" width="48.75" height="48.75" fill="#B4C7E7"/><path d="M2619.25 1148.75 2635.5 1132.5 2635.5 1181.25 2619.25 1197.5Z" fill="#91A0BA" fill-rule="evenodd"/><path d="M2570.5 1148.75 2586.75 1132.5 2635.5 1132.5 2619.25 1148.75Z" fill="#C3D2EC" fill-rule="evenodd"/><path d="M2570.5 1148.75 2586.75 1132.5 2635.5 1132.5 2635.5 1181.25 2619.25 1197.5 2570.5 1197.5ZM2570.5 1148.75 2619.25 1148.75 2635.5 1132.5M2619.25 1148.75 2619.25 1197.5" stroke="#2F528F" stroke-width="4.58333" stroke-miterlimit="8" fill="none" fill-rule="evenodd"/><rect x="2570.5" y="1229.75" width="48.75" height="48.75" fill="#B4C7E7"/><path d="M2619.25 1229.75 2635.5 1213.5 2635.5 1262.25 2619.25 1278.5Z" fill="#91A0BA" fill-rule="evenodd"/><path d="M2570.5 1229.75 2586.75 1213.5 2635.5 1213.5 2619.25 1229.75Z" fill="#C3D2EC" fill-rule="evenodd"/><path d="M2570.5 1229.75 2586.75 1213.5 2635.5 1213.5 2635.5 1262.25 2619.25 1278.5 2570.5 1278.5ZM2570.5 1229.75 2619.25 1229.75 2635.5 1213.5M2619.25 1229.75 2619.25 1278.5" stroke="#2F528F" stroke-width="4.58333" stroke-miterlimit="8" fill="none" fill-rule="evenodd"/><rect x="3166.5" y="825.75" width="48.75" height="48.7499" fill="#8FAADC"/><path d="M3215.25 825.75 3231.5 809.5 3231.5 858.25 3215.25 874.5Z" fill="#7389B1" fill-rule="evenodd"/><path d="M3166.5 825.75 3182.75 809.5 3231.5 809.5 3215.25 825.75Z" fill="#A5BBE3" fill-rule="evenodd"/><path d="M3166.5 825.75 3182.75 809.5 3231.5 809.5 3231.5 858.25 3215.25 874.5 3166.5 874.5ZM3166.5 825.75 3215.25 825.75 3231.5 809.5M3215.25 825.75 3215.25 874.5" stroke="#2F528F" stroke-width="4.58333" stroke-miterlimit="8" fill="none" fill-rule="evenodd"/><rect x="3166.5" y="906.75" width="48.75" height="48.7499" fill="#8FAADC"/><path d="M3215.25 906.75 3231.5 890.5 3231.5 939.25 3215.25 955.5Z" fill="#7389B1" fill-rule="evenodd"/><path d="M3166.5 906.75 3182.75 890.5 3231.5 890.5 3215.25 906.75Z" fill="#A5BBE3" fill-rule="evenodd"/><path d="M3166.5 906.75 3182.75 890.5 3231.5 890.5 3231.5 939.25 3215.25 955.5 3166.5 955.5ZM3166.5 906.75 3215.25 906.75 3231.5 890.5M3215.25 906.75 3215.25 955.5" stroke="#2F528F" stroke-width="4.58333" stroke-miterlimit="8" fill="none" fill-rule="evenodd"/><rect x="3167.5" y="986.5" width="48" height="49" fill="#8FAADC"/><path d="M3215.5 986.5 3231.5 970.5 3231.5 1019.5 3215.5 1035.5Z" fill="#7389B1" fill-rule="evenodd"/><path d="M3167.5 986.5 3183.5 970.5 3231.5 970.5 3215.5 986.5Z" fill="#A5BBE3" fill-rule="evenodd"/><path d="M3167.5 986.5 3183.5 970.5 3231.5 970.5 3231.5 1019.5 3215.5 1035.5 3167.5 1035.5ZM3167.5 986.5 3215.5 986.5 3231.5 970.5M3215.5 986.5 3215.5 1035.5" stroke="#2F528F" stroke-width="4.58333" stroke-miterlimit="8" fill="none" fill-rule="evenodd"/><rect x="3166.5" y="1065.75" width="48.75" height="48.75" fill="#8FAADC"/><path d="M3215.25 1065.75 3231.5 1049.5 3231.5 1098.25 3215.25 1114.5Z" fill="#7389B1" fill-rule="evenodd"/><path d="M3166.5 1065.75 3182.75 1049.5 3231.5 1049.5 3215.25 1065.75Z" fill="#A5BBE3" fill-rule="evenodd"/><path d="M3166.5 1065.75 3182.75 1049.5 3231.5 1049.5 3231.5 1098.25 3215.25 1114.5 3166.5 1114.5ZM3166.5 1065.75 3215.25 1065.75 3231.5 1049.5M3215.25 1065.75 3215.25 1114.5" stroke="#2F528F" stroke-width="4.58333" stroke-miterlimit="8" fill="none" fill-rule="evenodd"/><rect x="3166.5" y="1146.75" width="48.75" height="48.75" fill="#8FAADC"/><path d="M3215.25 1146.75 3231.5 1130.5 3231.5 1179.25 3215.25 1195.5Z" fill="#7389B1" fill-rule="evenodd"/><path d="M3166.5 1146.75 3182.75 1130.5 3231.5 1130.5 3215.25 1146.75Z" fill="#A5BBE3" fill-rule="evenodd"/><path d="M3166.5 1146.75 3182.75 1130.5 3231.5 1130.5 3231.5 1179.25 3215.25 1195.5 3166.5 1195.5ZM3166.5 1146.75 3215.25 1146.75 3231.5 1130.5M3215.25 1146.75 3215.25 1195.5" stroke="#2F528F" stroke-width="4.58333" stroke-miterlimit="8" fill="none" fill-rule="evenodd"/><rect x="3166.5" y="1227.75" width="48.75" height="48.75" fill="#8FAADC"/><path d="M3215.25 1227.75 3231.5 1211.5 3231.5 1260.25 3215.25 1276.5Z" fill="#7389B1" fill-rule="evenodd"/><path d="M3166.5 1227.75 3182.75 1211.5 3231.5 1211.5 3215.25 1227.75Z" fill="#A5BBE3" fill-rule="evenodd"/><path d="M3166.5 1227.75 3182.75 1211.5 3231.5 1211.5 3231.5 1260.25 3215.25 1276.5 3166.5 1276.5ZM3166.5 1227.75 3215.25 1227.75 3231.5 1211.5M3215.25 1227.75 3215.25 1276.5" stroke="#2F528F" stroke-width="4.58333" stroke-miterlimit="8" fill="none" fill-rule="evenodd"/><path d="M0 7.87847 36.897 7.87847 36.897 0 49.0002 8.49992 36.897 16.9998 36.897 9.12137 0 9.12137Z" stroke="#2F5597" stroke-width="2.29167" stroke-miterlimit="8" fill="#8FAADC" fill-rule="evenodd" transform="matrix(1 0 0 -1 2637 1254)"/><path d="M0 7.87847 36.897 7.87847 36.897 0 49.0002 8.49992 36.897 16.9998 36.897 9.12137 0 9.12137Z" stroke="#2F5597" stroke-width="2.29167" stroke-miterlimit="8" fill="#8FAADC" fill-rule="evenodd" transform="matrix(1 0 0 -1 2637 1172)"/><path d="M0 7.4152 37.6087 7.4152 37.6087 0 49.0002 8.00011 37.6087 16.0002 37.6087 8.58496 0 8.58496Z" stroke="#2F5597" stroke-width="2.29167" stroke-miterlimit="8" fill="#8FAADC" fill-rule="evenodd" transform="matrix(1 0 0 -1 2637 1090)"/><path d="M0 7.87847 36.897 7.87847 36.897 0 49.0002 8.49992 36.897 16.9998 36.897 9.12137 0 9.12137Z" stroke="#2F5597" stroke-width="2.29167" stroke-miterlimit="8" fill="#8FAADC" fill-rule="evenodd" transform="matrix(1 0 0 -1 2637 1011)"/><path d="M0 7.4152 37.6087 7.4152 37.6087 0 49.0002 8.00011 37.6087 16.0002 37.6087 8.58496 0 8.58496Z" stroke="#2F5597" stroke-width="2.29167" stroke-miterlimit="8" fill="#8FAADC" fill-rule="evenodd" transform="matrix(1 0 0 -1 2637 929)"/><path d="M0 7.4152 37.6087 7.4152 37.6087 0 49.0002 8.00011 37.6087 16.0002 37.6087 8.58496 0 8.58496Z" stroke="#2F5597" stroke-width="2.29167" stroke-miterlimit="8" fill="#8FAADC" fill-rule="evenodd" transform="matrix(1 0 0 -1 2637 850)"/><path d="M0 7.87841 36.8967 7.87841 36.8967 0 48.9998 8.49986 36.8967 16.9997 36.8967 9.1213 0 9.1213Z" stroke="#2F5597" stroke-width="2.29167" stroke-miterlimit="8" fill="#8FAADC" fill-rule="evenodd" transform="matrix(1 0 0 -1 3115 1258)"/><path d="M0 7.41515 37.6084 7.41515 37.6084 0 48.9998 8.00006 37.6084 16.0001 37.6084 8.5849 0 8.5849Z" stroke="#2F5597" stroke-width="2.29167" stroke-miterlimit="8" fill="#8FAADC" fill-rule="evenodd" transform="matrix(1 0 0 -1 3115 1178)"/><path d="M0 7.87839 36.8967 7.87839 36.8967 0 48.9998 8.49984 36.8967 16.9997 36.8967 9.12128 0 9.12128Z" stroke="#2F5597" stroke-width="2.29167" stroke-miterlimit="8" fill="#8FAADC" fill-rule="evenodd" transform="matrix(1 0 0 -1 3115 1099)"/><path d="M0 7.87839 36.8967 7.87839 36.8967 0 48.9998 8.49984 36.8967 16.9997 36.8967 9.12128 0 9.12128Z" stroke="#2F5597" stroke-width="2.29167" stroke-miterlimit="8" fill="#8FAADC" fill-rule="evenodd" transform="matrix(1 0 0 -1 3115 1019)"/><path d="M0 7.41515 37.6084 7.41515 37.6084 0 48.9998 8.00006 37.6084 16.0001 37.6084 8.5849 0 8.5849Z" stroke="#2F5597" stroke-width="2.29167" stroke-miterlimit="8" fill="#8FAADC" fill-rule="evenodd" transform="matrix(1 0 0 -1 3115 940)"/><path d="M0 7.87841 36.8967 7.87841 36.8967 0 48.9998 8.49986 36.8967 16.9997 36.8967 9.1213 0 9.1213Z" stroke="#2F5597" stroke-width="2.29167" stroke-miterlimit="8" fill="#8FAADC" fill-rule="evenodd" transform="matrix(1 0 0 -1 3115 859)"/></g></svg>