<svg width="172" height="67" xmlns="http://www.w3.org/2000/svg" xmlns:xlink="http://www.w3.org/1999/xlink" overflow="hidden"><defs><clipPath id="clip0"><rect x="426" y="776" width="172" height="67"/></clipPath></defs><g clip-path="url(#clip0)" transform="translate(-426 -776)"><rect x="427" y="820.396" width="24.6035" height="21.6035" fill="#FFD966"/><path d="M451.603 820.396 495 777 495 798.603 451.603 842Z" fill="#CDAE52" fill-rule="evenodd"/><path d="M427 820.396 470.396 777 495 777 451.603 820.396Z" fill="#FFE084" fill-rule="evenodd"/><path d="M427 820.396 470.396 777 495 777 495 798.603 451.603 842 427 842ZM427 820.396 451.603 820.396 495 777M451.603 820.396 451.603 842" stroke="#FFF2CC" stroke-width="2.29167" stroke-miterlimit="8" fill="none" fill-rule="evenodd"/><rect x="461" y="820.396" width="24.6035" height="21.6035" fill="#FFD966"/><path d="M485.604 820.396 529 777 529 798.603 485.604 842Z" fill="#CDAE52" fill-rule="evenodd"/><path d="M461 820.396 504.396 777 529 777 485.604 820.396Z" fill="#FFE084" fill-rule="evenodd"/><path d="M461 820.396 504.396 777 529 777 529 798.603 485.604 842 461 842ZM461 820.396 485.604 820.396 529 777M485.604 820.396 485.604 842" stroke="#FFF2CC" stroke-width="2.29167" stroke-miterlimit="8" fill="none" fill-rule="evenodd"/><rect x="495" y="820.396" width="24.6035" height="21.6035" fill="#FFD966"/><path d="M519.604 820.396 563 777 563 798.603 519.604 842Z" fill="#CDAE52" fill-rule="evenodd"/><path d="M495 820.396 538.397 777 563 777 519.604 820.396Z" fill="#FFE084" fill-rule="evenodd"/><path d="M495 820.396 538.397 777 563 777 563 798.603 519.604 842 495 842ZM495 820.396 519.604 820.396 563 777M519.604 820.396 519.604 842" stroke="#FFF2CC" stroke-width="2.29167" stroke-miterlimit="8" fill="none" fill-rule="evenodd"/><rect x="529" y="820.396" width="24.6036" height="21.6035" fill="#FFD966"/><path d="M553.604 820.396 597 777 597 798.603 553.604 842Z" fill="#CDAE52" fill-rule="evenodd"/><path d="M529 820.396 572.397 777 597 777 553.604 820.396Z" fill="#FFE084" fill-rule="evenodd"/><path d="M529 820.396 572.397 777 597 777 597 798.603 553.604 842 529 842ZM529 820.396 553.604 820.396 597 777M553.604 820.396 553.604 842" stroke="#FFF2CC" stroke-width="2.29167" stroke-miterlimit="8" fill="none" fill-rule="evenodd"/></g></svg>