<svg width="172" height="67" xmlns="http://www.w3.org/2000/svg" xmlns:xlink="http://www.w3.org/1999/xlink" overflow="hidden"><defs><clipPath id="clip0"><rect x="487" y="615" width="172" height="67"/></clipPath></defs><g clip-path="url(#clip0)" transform="translate(-487 -615)"><rect x="488" y="659.397" width="24.6031" height="21.6034" fill="#9DC3E6"/><path d="M512.603 659.397 556 616 556 637.603 512.603 681Z" fill="#7E9DB9" fill-rule="evenodd"/><path d="M488 659.397 531.397 616 556 616 512.603 659.397Z" fill="#B0CFEB" fill-rule="evenodd"/><path d="M488 659.397 531.397 616 556 616 556 637.603 512.603 681 488 681ZM488 659.397 512.603 659.397 556 616M512.603 659.397 512.603 681" stroke="#2F528F" stroke-width="2.29167" stroke-miterlimit="8" fill="none" fill-rule="evenodd"/><rect x="522" y="659.397" width="24.6031" height="21.6034" fill="#9DC3E6"/><path d="M546.603 659.397 590 616 590 637.603 546.603 681Z" fill="#7E9DB9" fill-rule="evenodd"/><path d="M522 659.397 565.397 616 590 616 546.603 659.397Z" fill="#B0CFEB" fill-rule="evenodd"/><path d="M522 659.397 565.397 616 590 616 590 637.603 546.603 681 522 681ZM522 659.397 546.603 659.397 590 616M546.603 659.397 546.603 681" stroke="#2F528F" stroke-width="2.29167" stroke-miterlimit="8" fill="none" fill-rule="evenodd"/><rect x="556" y="659.397" width="24.6033" height="21.6035" fill="#9DC3E6"/><path d="M580.603 659.397 624 616 624 637.604 580.603 681Z" fill="#7E9DB9" fill-rule="evenodd"/><path d="M556 659.397 599.397 616 624 616 580.603 659.397Z" fill="#B0CFEB" fill-rule="evenodd"/><path d="M556 659.397 599.397 616 624 616 624 637.604 580.603 681 556 681ZM556 659.397 580.603 659.397 624 616M580.603 659.397 580.603 681" stroke="#2F528F" stroke-width="2.29167" stroke-miterlimit="8" fill="none" fill-rule="evenodd"/><rect x="590" y="659.397" width="24.6033" height="21.6035" fill="#9DC3E6"/><path d="M614.603 659.397 658 616 658 637.604 614.603 681Z" fill="#7E9DB9" fill-rule="evenodd"/><path d="M590 659.397 633.397 616 658 616 614.603 659.397Z" fill="#B0CFEB" fill-rule="evenodd"/><path d="M590 659.397 633.397 616 658 616 658 637.604 614.603 681 590 681ZM590 659.397 614.603 659.397 658 616M614.603 659.397 614.603 681" stroke="#2F528F" stroke-width="2.29167" stroke-miterlimit="8" fill="none" fill-rule="evenodd"/></g></svg>