<svg width="788" height="335" xmlns="http://www.w3.org/2000/svg" xmlns:xlink="http://www.w3.org/1999/xlink" overflow="hidden"><g transform="translate(-260 -46)"><path d="M261.5 103.001C261.5 72.3489 286.349 47.5001 317.001 47.5001L991.999 47.5001C1022.65 47.5001 1047.5 72.3489 1047.5 103.001L1047.5 324.999C1047.5 355.651 1022.65 380.5 991.999 380.5L317.001 380.5C286.349 380.5 261.5 355.651 261.5 324.999Z" stroke="#172C51" stroke-width="1.33333" stroke-miterlimit="8" fill="#FCF9F1" fill-rule="evenodd"/><path d="M652 139.667C652 133.776 656.776 129 662.667 129L791.333 129C797.224 129 802 133.776 802 139.667L802 182.333C802 188.224 797.224 193 791.333 193L662.667 193C656.776 193 652 188.224 652 182.333Z" stroke="#595959" stroke-width="4" stroke-miterlimit="8" fill="#D0CECE" fill-rule="evenodd"/><text font-family="Constantia,Constantia_MSFontService,sans-serif" font-weight="400" font-size="24" transform="translate(698.406 153)">Cross</text><text font-family="Constantia,Constantia_MSFontService,sans-serif" font-weight="400" font-size="24" transform="translate(679.666 182)">Attention</text><path d="M590 160 606.01 160 606.01 162 590 162ZM604.677 157 612.677 161 604.677 165Z"/><path d="M439 139.667C439 133.776 443.776 129 449.667 129L579.333 129C585.224 129 590 133.776 590 139.667L590 182.333C590 188.224 585.224 193 579.333 193L449.667 193C443.776 193 439 188.224 439 182.333Z" stroke="#595959" stroke-width="4" stroke-miterlimit="8" fill="#D0CECE" fill-rule="evenodd"/><text font-family="Constantia,Constantia_MSFontService,sans-serif" font-weight="400" font-size="24" transform="translate(495.301 153)">Self</text><text font-family="Constantia,Constantia_MSFontService,sans-serif" font-weight="400" font-size="24" transform="translate(467.074 182)">Attention</text><path d="M652 252.833C652 246.85 656.85 242 662.833 242L791.167 242C797.15 242 802 246.85 802 252.833L802 296.167C802 302.15 797.15 307 791.167 307L662.833 307C656.85 307 652 302.15 652 296.167Z" stroke="#595959" stroke-width="4" stroke-miterlimit="8" fill="#D0CECE" fill-rule="evenodd"/><text font-family="Constantia,Constantia_MSFontService,sans-serif" font-weight="400" font-size="24" transform="translate(698.406 267)">Cross</text><text font-family="Constantia,Constantia_MSFontService,sans-serif" font-weight="400" font-size="24" transform="translate(679.666 296)">Attention</text><text font-family="Cambria Math,Cambria Math_MSFontService,sans-serif" font-weight="400" font-size="21" transform="translate(706.626 87)">ğ‘‰</text><text font-family="Cambria Math,Cambria Math_MSFontService,sans-serif" font-weight="400" font-size="15" transform="translate(717.126 91)">ğ‘ğ‘™ğ‘–ğ‘</text><text font-family="Cambria Math,Cambria Math_MSFontService,sans-serif" font-weight="400" font-size="21" transform="translate(875.59 160)">ğ‘‰</text><text font-family="Cambria Math,Cambria Math_MSFontService,sans-serif" font-weight="400" font-size="15" transform="translate(886.09 167)">ğ‘–</text><text font-family="Cambria Math,Cambria Math_MSFontService,sans-serif" font-weight="400" font-size="15" transform="translate(890.104 149)">ğ‘ğ‘ğ‘–ğ‘Ÿ</text><path d="M624 105 624 140.923 622 140.923 622 105ZM627 139.59 623 147.59 619 139.589Z"/><path d="M438 252.667C438 246.776 442.776 242 448.667 242L578.333 242C584.224 242 589 246.776 589 252.667L589 295.333C589 301.224 584.224 306 578.333 306L448.667 306C442.776 306 438 301.224 438 295.333Z" stroke="#595959" stroke-width="4" stroke-miterlimit="8" fill="#D0CECE" fill-rule="evenodd"/><text font-family="Constantia,Constantia_MSFontService,sans-serif" font-weight="400" font-size="24" transform="translate(494.425 266)">Self</text><text font-family="Constantia,Constantia_MSFontService,sans-serif" font-weight="400" font-size="24" transform="translate(466.198 295)">Attention</text><text font-family="Cambria Math,Cambria Math_MSFontService,sans-serif" font-weight="400" font-size="21" transform="translate(296.991 283)">ğ‘‰</text><text font-family="Cambria Math,Cambria Math_MSFontService,sans-serif" font-weight="400" font-size="15" transform="translate(307.491 289)">ğ‘–</text><text font-family="Cambria Math,Cambria Math_MSFontService,sans-serif" font-weight="400" font-size="15" transform="translate(311.504 275)">â„</text><text font-family="Cambria Math,Cambria Math_MSFontService,sans-serif" font-weight="400" font-size="21" transform="translate(329.966 330)">ğ‘ƒğ‘œğ‘ </text><text font-family="Cambria Math,Cambria Math_MSFontService,sans-serif" font-weight="400" font-size="15" transform="translate(363.779 336)">ğ‘–</text><text font-family="Cambria Math,Cambria Math_MSFontService,sans-serif" font-weight="400" font-size="15" transform="translate(365.312 322)">â„</text><text font-family="Cambria Math,Cambria Math_MSFontService,sans-serif" font-weight="400" font-size="21" transform="translate(376.259 330)">(</text><text font-family="Cambria Math,Cambria Math_MSFontService,sans-serif" font-weight="400" font-size="21" transform="translate(385.092 330)">ğ‘ğ‘’</text><text font-family="Cambria Math,Cambria Math_MSFontService,sans-serif" font-weight="400" font-size="21" transform="translate(406.059 330)">,</text><text font-family="Cambria Math,Cambria Math_MSFontService,sans-serif" font-weight="400" font-size="21" transform="translate(413.946 330)">ğ‘¤â„</text><text font-family="Cambria Math,Cambria Math_MSFontService,sans-serif" font-weight="400" font-size="21" transform="translate(441.979 330)">)</text><g><g><g><g><path d="M149.429 247.5C149.429 242.411 153.586 238.286 158.714 238.286 163.843 238.286 168 242.411 168 247.5 168 252.589 163.843 256.714 158.714 256.714 153.586 256.714 149.429 252.589 149.429 247.5Z" stroke="#595959" stroke-width="1.47321" stroke-miterlimit="8" fill="#E7E6E6" fill-rule="evenodd" transform="matrix(1 0 0 1.05755 231.286 13.7554)"/><path d="M153.866 246.043 157.114 246.043 157.114 242.741 160.171 242.741 160.171 246.043 163.42 246.043 163.42 249.1 160.171 249.1 160.171 252.401 157.114 252.401 157.114 249.1 153.866 249.1Z" fill="#767171" fill-rule="evenodd" transform="matrix(1 0 0 1.05755 231.286 13.7554)"/></g></g></g></g><path d="M339.5 274 373.073 274 373.073 277 339.5 277ZM371.573 271 380.573 275.5 371.573 280Z" fill="#595959"/><path d="M389.407 304.47 389.17 294.032 392.17 293.964 392.406 304.402ZM386.205 295.6 390.5 286.5 395.203 295.396Z" fill="#595959"/><text font-family="Cambria Math,Cambria Math_MSFontService,sans-serif" font-weight="400" font-size="21" transform="translate(297.575 169)">ğ‘‰</text><text font-family="Cambria Math,Cambria Math_MSFontService,sans-serif" font-weight="400" font-size="15" transform="translate(308.075 175)">ğ‘–</text><text font-family="Cambria Math,Cambria Math_MSFontService,sans-serif" font-weight="400" font-size="15" transform="translate(312.089 161)">ğ‘œ</text><text font-family="Cambria Math,Cambria Math_MSFontService,sans-serif" font-weight="400" font-size="21" transform="translate(330.246 120)">ğ‘ƒğ‘œğ‘ </text><text font-family="Cambria Math,Cambria Math_MSFontService,sans-serif" font-weight="400" font-size="15" transform="translate(364.059 125)">ğ‘–</text><text font-family="Cambria Math,Cambria Math_MSFontService,sans-serif" font-weight="400" font-size="15" transform="translate(365.592 111)">ğ‘œ</text><text font-family="Cambria Math,Cambria Math_MSFontService,sans-serif" font-weight="400" font-size="21" transform="translate(375.986 120)">(</text><text font-family="Cambria Math,Cambria Math_MSFontService,sans-serif" font-weight="400" font-size="21" transform="translate(384.819 120)">ğ‘ğ‘’</text><text font-family="Cambria Math,Cambria Math_MSFontService,sans-serif" font-weight="400" font-size="21" transform="translate(405.786 120)">,</text><text font-family="Cambria Math,Cambria Math_MSFontService,sans-serif" font-weight="400" font-size="21" transform="translate(413.672 120)">ğ‘¤â„</text><text font-family="Cambria Math,Cambria Math_MSFontService,sans-serif" font-weight="400" font-size="21" transform="translate(441.706 120)">)</text><g><g><g><g><path d="M149.429 247.5C149.429 242.411 153.586 238.286 158.714 238.286 163.843 238.286 168 242.411 168 247.5 168 252.589 163.843 256.714 158.714 256.714 153.586 256.714 149.429 252.589 149.429 247.5Z" stroke="#595959" stroke-width="1.47321" stroke-miterlimit="8" fill="#E7E6E6" fill-rule="evenodd" transform="matrix(1 0 0 1.05755 231.286 -99.2446)"/><path d="M153.866 246.043 157.114 246.043 157.114 242.741 160.171 242.741 160.171 246.043 163.42 246.043 163.42 249.1 160.171 249.1 160.171 252.401 157.114 252.401 157.114 249.1 153.866 249.1Z" fill="#767171" fill-rule="evenodd" transform="matrix(1 0 0 1.05755 231.286 -99.2446)"/></g></g></g></g><path d="M392 134.47 392.212 144.934 389.212 144.995 389 134.53ZM395.181 143.374 390.864 152.463 386.183 143.556Z" fill="#595959"/><path d="M803.5 160 846.599 160 846.599 201.412 843.599 201.412 843.599 161.5 845.099 163 803.5 163ZM849.599 199.912 845.099 208.912 840.599 199.912Z" fill="#595959"/><path d="M0-1.5 43.0993-1.5 43.0993 38.4333 40.0993 38.4333 40.0993 0 41.5993 1.5 0 1.5ZM46.0993 36.9333 41.5993 45.9333 37.0993 36.9333Z" fill="#595959" transform="matrix(1 0 0 -1 803.5 274.433)"/><g><g><g><g><path d="M150.504 249.281C150.504 244.155 154.691 240 159.856 240 165.022 240 169.209 244.155 169.209 249.281 169.209 254.406 165.022 258.561 159.856 258.561 154.691 258.561 150.504 254.406 150.504 249.281Z" stroke="#595959" stroke-width="1.48381" stroke-miterlimit="8" fill="#E7E6E6" fill-rule="evenodd" transform="matrix(1.0425 0 0 1 677.85 -31.2806)"/><path d="M154.973 247.813 158.245 247.813 158.245 244.488 161.324 244.488 161.324 247.813 164.596 247.813 164.596 250.892 161.324 250.892 161.324 254.217 158.245 254.217 158.245 250.892 154.973 250.892Z" fill="#767171" fill-rule="evenodd" transform="matrix(1.0425 0 0 1 677.85 -31.2806)"/></g></g></g></g><text font-family="Cambria Math,Cambria Math_MSFontService,sans-serif" font-weight="400" font-size="21" transform="translate(555.943 93)">ğ‘ƒğ‘œğ‘ </text><text font-family="Cambria Math,Cambria Math_MSFontService,sans-serif" font-weight="400" font-size="15" transform="translate(589.756 98)">ğ‘–</text><text font-family="Cambria Math,Cambria Math_MSFontService,sans-serif" font-weight="400" font-size="15" transform="translate(591.289 84)">â„</text><text font-family="Cambria Math,Cambria Math_MSFontService,sans-serif" font-weight="400" font-size="21" transform="translate(602.236 93)">(</text><text font-family="Cambria Math,Cambria Math_MSFontService,sans-serif" font-weight="400" font-size="21" transform="translate(611.069 93)">ğ‘ğ‘’</text><text font-family="Cambria Math,Cambria Math_MSFontService,sans-serif" font-weight="400" font-size="21" transform="translate(632.036 93)">,</text><text font-family="Cambria Math,Cambria Math_MSFontService,sans-serif" font-weight="400" font-size="21" transform="translate(639.923 93)">ğ‘‰</text><text font-family="Cambria Math,Cambria Math_MSFontService,sans-serif" font-weight="400" font-size="15" transform="translate(650.423 98)">ğ‘–</text><text font-family="Cambria Math,Cambria Math_MSFontService,sans-serif" font-weight="400" font-size="15" transform="translate(654.436 84)">â„</text><text font-family="Cambria Math,Cambria Math_MSFontService,sans-serif" font-weight="400" font-size="21" transform="translate(665.383 93)">)</text><g><g><g><g><path d="M149.429 247.5C149.429 242.411 153.586 238.286 158.714 238.286 163.843 238.286 168 242.411 168 247.5 168 252.589 163.843 256.714 158.714 256.714 153.586 256.714 149.429 252.589 149.429 247.5Z" stroke="#595959" stroke-width="1.47321" stroke-miterlimit="8" fill="#E7E6E6" fill-rule="evenodd" transform="matrix(1 0 0 1.00719 464.286 -88.2806)"/><path d="M153.866 246.043 157.114 246.043 157.114 242.741 160.171 242.741 160.171 246.043 163.42 246.043 163.42 249.1 160.171 249.1 160.171 252.401 157.114 252.401 157.114 249.1 153.866 249.1Z" fill="#767171" fill-rule="evenodd" transform="matrix(1 0 0 1.00719 464.286 -88.2806)"/></g></g></g></g><path d="M633 160 644.178 160 644.178 162 633 162ZM642.845 157 650.845 161 642.845 165Z"/><path d="M590 273 606.01 273 606.01 275 590 275ZM604.677 270 612.677 274 604.677 278Z"/><g><g><g><g><path d="M149.429 247.5C149.429 242.411 153.586 238.286 158.714 238.286 163.843 238.286 168 242.411 168 247.5 168 252.589 163.843 256.714 158.714 256.714 153.586 256.714 149.429 252.589 149.429 247.5Z" stroke="#595959" stroke-width="1.47321" stroke-miterlimit="8" fill="#E7E6E6" fill-rule="evenodd" transform="matrix(1 0 0 1.05755 464.286 12.7554)"/><path d="M153.866 246.043 157.114 246.043 157.114 242.741 160.171 242.741 160.171 246.043 163.42 246.043 163.42 249.1 160.171 249.1 160.171 252.401 157.114 252.401 157.114 249.1 153.866 249.1Z" fill="#767171" fill-rule="evenodd" transform="matrix(1 0 0 1.05755 464.286 12.7554)"/></g></g></g></g><path d="M633 273 644.178 273 644.178 275 633 275ZM642.845 270 650.845 274 642.845 278Z"/><path d="M1-2.45821e-06 1.00009 36.042-0.999911 36.042-1 2.45821e-06ZM4.00009 34.7086 0.000104987 42.7087-3.99991 34.7087Z" transform="matrix(1 0 0 -1 623 327.709)"/><text font-family="Cambria Math,Cambria Math_MSFontService,sans-serif" font-weight="400" font-size="21" transform="translate(564.374 349)">ğ‘ƒğ‘œğ‘ </text><text font-family="Cambria Math,Cambria Math_MSFontService,sans-serif" font-weight="400" font-size="15" transform="translate(598.187 354)">ğ‘–</text><text font-family="Cambria Math,Cambria Math_MSFontService,sans-serif" font-weight="400" font-size="15" transform="translate(599.72 340)">ğ‘œ</text><text font-family="Cambria Math,Cambria Math_MSFontService,sans-serif" font-weight="400" font-size="21" transform="translate(610.114 349)">(</text><text font-family="Cambria Math,Cambria Math_MSFontService,sans-serif" font-weight="400" font-size="21" transform="translate(618.947 349)">ğ‘ğ‘’</text><text font-family="Cambria Math,Cambria Math_MSFontService,sans-serif" font-weight="400" font-size="21" transform="translate(639.914 349)">,</text><text font-family="Cambria Math,Cambria Math_MSFontService,sans-serif" font-weight="400" font-size="21" transform="translate(647.8 349)">ğ‘‰</text><text font-family="Cambria Math,Cambria Math_MSFontService,sans-serif" font-weight="400" font-size="15" transform="translate(658.3 354)">ğ‘–</text><text font-family="Cambria Math,Cambria Math_MSFontService,sans-serif" font-weight="400" font-size="15" transform="translate(662.314 340)">ğ‘œ</text><text font-family="Cambria Math,Cambria Math_MSFontService,sans-serif" font-weight="400" font-size="21" transform="translate(672.707 349)">)</text><path d="M728 100 728 120.165 726 120.165 726 100ZM731 118.832 727 126.832 723 118.832Z"/><text font-family="Cambria Math,Cambria Math_MSFontService,sans-serif" font-weight="400" font-size="21" transform="translate(706.626 358)">ğ‘‰</text><text font-family="Cambria Math,Cambria Math_MSFontService,sans-serif" font-weight="400" font-size="15" transform="translate(717.126 362)">ğ‘ğ‘™ğ‘–ğ‘</text><path d="M1-4.2973e-06 1.00008 17.7642-0.999924 17.7642-1 4.2973e-06ZM4.00007 16.4308 0.000104987 24.4309-3.99993 16.4309Z" transform="matrix(1 0 0 -1 727 332.431)"/><g><g><g><g><path d="M138.264 229.009C138.264 224.3 142.111 220.483 146.856 220.483 151.602 220.483 155.448 224.3 155.448 229.009 155.448 233.717 151.602 237.534 146.856 237.534 142.111 237.534 138.264 233.717 138.264 229.009Z" stroke="#595959" stroke-width="1.36315" stroke-miterlimit="8" fill="#E7E6E6" fill-rule="evenodd" transform="matrix(1.00202 0 0 1 752.914 -12.1609)"/><text fill="#3B3838" font-family="DengXian,DengXian_MSFontService,sans-serif" font-weight="700" font-size="83" transform="matrix(0.13245 0 0 0.132184 896.63 220)">C</text></g></g></g></g><path d="M855 217 882.829 217 882.829 219 855 219ZM881.495 214 889.495 218 881.495 222Z"/><path d="M901 172 901 199.771 899 199.771 899 172ZM904 198.437 900 206.437 896 198.437Z"/><path d="M979.546 170.5C983.387 170.5 986.5 173.613 986.5 177.454L986.5 260.546C986.5 264.387 983.387 267.5 979.546 267.5L954.454 267.5C950.613 267.5 947.5 264.387 947.5 260.546L947.5 177.454C947.5 173.613 950.613 170.5 954.454 170.5Z" stroke="#595959" stroke-width="3" stroke-miterlimit="8" fill="#D0CECE" fill-rule="evenodd"/><text font-family="Constantia,Constantia_MSFontService,sans-serif" font-weight="400" font-size="24" transform="translate(959.311 197)">F</text><text font-family="Constantia,Constantia_MSFontService,sans-serif" font-weight="400" font-size="24" transform="translate(959.311 226)">F</text><text font-family="Constantia,Constantia_MSFontService,sans-serif" font-weight="400" font-size="24" transform="translate(956.811 255)">N</text><path d="M910 217 937.829 217 937.829 219 910 219ZM936.495 214 944.495 218 936.495 222Z"/><path d="M401.5 161 428.217 161 428.217 164 401.5 164ZM426.717 158 435.717 162.5 426.717 167Z" fill="#595959"/><path d="M339.5 161 372.858 161 372.858 164 339.5 164ZM371.358 158 380.358 162.5 371.358 167Z" fill="#595959"/><path d="M400.5 275 427.217 275 427.217 278 400.5 278ZM425.717 272 434.717 276.5 425.717 281Z" fill="#595959"/><path d="M501.5 218.25C501.5 222.24 507.67 225.725 516.5 226.722L516.5 224.222 521.5 229.5 516.5 234.222 516.5 231.722C507.67 230.725 501.5 227.24 501.5 223.25Z" fill="#4472C4" fill-rule="evenodd"/><path d="M521.5 214.5C512.655 214.5 504.861 217.042 502.334 220.75 499.178 216.119 505.201 211.245 515.786 209.865 517.64 209.623 519.565 209.5 521.5 209.5Z" fill="#375C9E" fill-rule="evenodd"/><path d="M501.5 218.25C501.5 222.24 507.67 225.725 516.5 226.722L516.5 224.222 521.5 229.5 516.5 234.222 516.5 231.722C507.67 230.725 501.5 227.24 501.5 223.25L501.5 218.25C501.5 213.418 510.454 209.5 521.5 209.5L521.5 214.5C512.655 214.5 504.861 217.042 502.334 220.75" stroke="#2F528F" stroke-width="1.33333" stroke-miterlimit="8" fill="none" fill-rule="evenodd"/><path d="M536.778 215.658C536.598 211.886 530.44 208.877 521.805 208.343L521.921 210.775 516.813 205.881 521.457 201.048 521.573 203.48C530.208 204.013 536.366 207.022 536.546 210.794Z" fill="#4472C4" fill-rule="evenodd"/><path d="M517.485 219.995C526.027 219.588 533.457 216.859 535.803 213.267 539.169 217.484 533.625 222.388 523.419 224.22 521.577 224.551 519.656 224.766 517.717 224.858Z" fill="#375C9E" fill-rule="evenodd"/><path d="M536.778 215.658C536.598 211.886 530.44 208.877 521.805 208.343L521.921 210.775 516.813 205.881 521.457 201.048 521.573 203.48C530.208 204.013 536.366 207.022 536.546 210.794L536.778 215.658C536.996 220.227 528.462 224.346 517.717 224.858L517.485 219.995C526.027 219.588 533.457 216.859 535.803 213.267" stroke="#2F528F" stroke-width="1.33333" stroke-miterlimit="8" fill="none" fill-rule="evenodd"/><path d="M745.729 216.642C745.549 212.87 739.391 209.861 730.756 209.328L730.872 211.759 725.764 206.865 730.409 202.032 730.524 204.464C739.159 204.998 745.318 208.006 745.497 211.779Z" fill="#4472C4" fill-rule="evenodd"/><path d="M726.437 220.979C734.979 220.572 742.408 217.843 744.754 214.251 748.12 218.468 742.576 223.372 732.37 225.205 730.529 225.535 728.607 225.75 726.669 225.843Z" fill="#375C9E" fill-rule="evenodd"/><path d="M745.729 216.642C745.549 212.87 739.391 209.861 730.756 209.328L730.872 211.759 725.764 206.865 730.409 202.032 730.524 204.464C739.159 204.998 745.318 208.006 745.497 211.779L745.729 216.642C745.947 221.211 737.413 225.331 726.669 225.843L726.437 220.979C734.979 220.572 742.408 217.843 744.754 214.251" stroke="#2F528F" stroke-width="1.33333" stroke-miterlimit="8" fill="none" fill-rule="evenodd"/><path d="M712.5 221.063C712.5 224.967 718.978 228.377 728.25 229.353L728.25 226.728 733.5 232.25 728.25 237.228 728.25 234.603C718.978 233.627 712.5 230.217 712.5 226.313Z" fill="#4472C4" fill-rule="evenodd"/><path d="M733.5 217.75C724.382 217.75 716.306 220.149 713.511 223.688 709.956 219.186 716.023 214.362 727.062 212.912 729.142 212.639 731.315 212.5 733.5 212.5Z" fill="#375C9E" fill-rule="evenodd"/><path d="M712.5 221.063C712.5 224.967 718.978 228.377 728.25 229.353L728.25 226.728 733.5 232.25 728.25 237.228 728.25 234.603C718.978 233.627 712.5 230.217 712.5 226.313L712.5 221.063C712.5 216.334 721.902 212.5 733.5 212.5L733.5 217.75C724.382 217.75 716.306 220.149 713.511 223.688" stroke="#2F528F" stroke-width="1.33333" stroke-miterlimit="8" fill="none" fill-rule="evenodd"/><path d="M986.5 217 1013.22 217 1013.22 220 986.5 220ZM1011.72 214 1020.72 218.5 1011.72 223Z" fill="#595959"/></g></svg>